<?xml version="1.0" encoding="UTF-8"?>
<!DOCTYPE svg PUBLIC "-//W3C//DTD SVG 1.1//EN" "http://www.w3.org/Graphics/SVG/1.1/DTD/svg11.dtd">
<!-- Creator: CorelDRAW 2021.5 -->
<svg xmlns="http://www.w3.org/2000/svg" xml:space="preserve" width="100mm" height="100mm" version="1.1" style="shape-rendering:geometricPrecision; text-rendering:geometricPrecision; image-rendering:optimizeQuality; fill-rule:evenodd; clip-rule:evenodd"
viewBox="0 0 10000 10000"
 xmlns:xlink="http://www.w3.org/1999/xlink"
 xmlns:xodm="http://www.corel.com/coreldraw/odm/2003">
 <defs>
  <style type="text/css">
   <![CDATA[
    .fil1 {fill:#2B2A29;fill-rule:nonzero}
    .fil0 {fill:#2B2A29;fill-rule:nonzero}
   ]]>
  </style>
 </defs>
 <g id="Слой_x0020_1">
  <metadata id="CorelCorpID_0Corel-Layer"/>
  <g id="_2170170210160">
   <path class="fil0" d="M5352.41 1592.98c384.28,70.81 705.47,251.38 963.6,541.7 15.22,17.11 39.82,48.23 73.79,93.37l35.78 48.82c83.73,123.34 148.4,256.3 194.03,398.88 30.34,98.98 50.17,193.49 59.47,283.52 13.51,130.55 11.32,265.45 -6.56,404.71 -14.33,106.26 -41.48,211.13 -81.42,314.59 -0.81,2.06 -2.72,3.38 -4.85,3.4 -3.6,0.04 -6.64,-0.77 -9.12,-2.44 -21.08,-14.34 -58.55,-39 -112.4,-73.96 -2.98,-1.93 -4.82,-5.2 -4.91,-8.74 -0.03,-1.34 0.18,-2.68 0.64,-3.94 38.63,-106.59 64.24,-212.99 76.86,-319.22 10.65,-89.44 8.89,-177.93 -5.28,-265.47 -9.38,-57.9 -19.85,-107.46 -31.38,-148.72 -38.21,-158.96 -99.34,-305.85 -183.42,-440.65 -233.12,-373.67 -614.5,-609.19 -1049.42,-667.22 -62.29,-8.33 -128.75,-12.09 -199.38,-11.28 -74.07,0.84 -140.48,4.71 -199.23,11.6 -43.91,5.22 -97.09,14.95 -159.52,29.2 -51.41,11.42 -99.49,25.08 -144.23,40.98 -272.96,97 -501.64,258.14 -686.04,483.43 -21.15,25.82 -33.11,46.03 -51.35,67.76 -7.7,9.26 -19.88,26.69 -36.53,52.28 -79.45,122.25 -139.29,252.64 -179.53,391.16 -15.75,54.17 -26.53,111.88 -35.59,166.83 -28.26,170.73 -22.56,339.84 17.11,507.33 107.09,494.21 496.37,868.88 975.28,1002.73 181.82,50.68 369.79,68.04 563.9,52.06 25.78,-2.13 44.97,-5.15 57.59,-9.08 161.34,-16.66 310.77,-66.27 448.31,-148.82 163.97,-98.54 302.17,-253.73 348.32,-442.18 80.68,-329.64 -162.3,-584.48 -460.03,-664.53 -148.95,-44.65 -312.89,-36.43 -462.41,7.82 -68.14,19.59 -137.07,40.52 -206.81,62.78 -108.11,34.53 -216.26,55.52 -324.46,62.98 -3.43,0.24 -6.07,3.14 -5.98,6.59 0.04,1.65 0.72,3.23 1.89,4.41 21.58,21.81 36.1,47.59 56.01,68.66 164.11,173.44 416.23,223.89 643.52,168.1 60.62,-16.17 116.79,-42.04 168.54,-77.62 59.21,-40.72 108.75,-90.5 148.61,-149.33 2.85,-4.18 6.22,-7.16 10.09,-8.91 2.95,-1.29 6.19,-1.05 8.75,0.59l119.92 72.64c0.41,0.25 0.7,0.45 0.98,0.66 5.6,4.16 6.76,12.1 2.59,17.72 -0.21,0.27 -0.43,0.54 -0.65,0.8 -23.67,27.5 -46.94,65.7 -70.75,90.78 -73.34,77.53 -155.27,134.85 -245.82,171.94 -73.88,30.25 -153.83,49.56 -239.85,57.95 -40.9,1.75 -79.89,2.53 -116.96,2.32 -93.28,-0.58 -181.64,-17.73 -265.06,-51.45 -170.74,-69.12 -307.94,-208.94 -389.29,-375.1 -12.11,-24.64 -27.66,-61.11 -46.66,-109.41l-1.65 -5.41c0.69,-6.86 5.38,-10.38 14.08,-10.59 61.86,-1.56 123.18,-7.75 183.98,-18.57 100.02,-14.44 197.45,-38.82 292.27,-73.14 48.86,-17.72 97.69,-35.46 146.5,-53.22 73.87,-26.95 148.89,-45.7 225.05,-56.25 244,-33.36 501.44,22.71 698.6,172.93 135.19,102.98 223.55,236.16 265.07,399.55 56.88,235.87 -4.04,466.12 -155.16,651.68 -76.01,94.14 -166.66,171.53 -271.95,232.15 -23.19,13.35 -46.83,26.62 -70.93,39.8 -130.76,63.36 -268.76,104.96 -413.99,124.79 -220.06,30.06 -437.88,19.71 -653.47,-31.06l-140.55 -41.97c-325.04,-112.16 -583.7,-305.69 -775.99,-580.59 -124.85,-178.49 -206.59,-379.67 -245.23,-603.53 -47.4,-307.61 -11.42,-614.85 115.7,-899.07 178.48,-398.96 514.44,-713.87 920.21,-873.27 294,-111.78 596.26,-140.86 906.77,-87.25z"/>
   <path class="fil0" d="M5221.08 2378.56c104.74,18.4 200.33,53.66 286.77,105.76 35.86,21.66 72.58,49.97 110.17,84.93 108.74,101.09 175.51,224.47 200.32,370.11 5.8,34.06 8.71,72.61 8.72,115.66 -52.42,-29.84 -101.85,-51.78 -148.27,-65.83 -6.96,-1.99 -12.56,-7.69 -14.47,-14.91l-7.41 -29.43c-31.25,-154.53 -142.45,-276.8 -283.9,-339.2 -60.48,-26.74 -123.49,-44.18 -189.04,-52.34 -260.77,-35.48 -496.74,64.64 -677.85,244.63 -2.06,2.04 -4.83,3.22 -7.74,3.28 -3.18,0.08 -6.25,-1.19 -8.48,-3.48 -38.82,-40.19 -80.23,-75.78 -124.22,-106.77 -0.86,-1.75 -1.28,-3.44 -1.28,-5.06 0.02,-1.25 0.84,-2.6 2.48,-4.08 74.14,-64.69 132.26,-110.7 174.36,-138.02 95.32,-61.87 184.8,-106.59 268.46,-134.14 135.46,-44.73 270.94,-51.64 411.38,-31.11z"/>
   <path class="fil0" d="M176.19 5158.17l1167.69 0c233.36,0 412.51,125.92 537.47,377.75 23.59,75.24 35.39,133.57 35.39,175.02l0 244.82c0,232.71 -128.15,411.86 -384.45,537.46 -80.34,23.59 -161.94,35.39 -244.83,35.39l-1096.92 0 -14.35 -6.7 0 -1363.74zm181.71 175.01l0 1020.42 929.56 0c228.88,0 378.08,-107.11 447.57,-321.33 4.46,-31.88 6.69,-57.39 6.69,-76.51l0 -238.13c0,-151.74 -90.85,-272.88 -272.55,-363.41 -49.73,-14.03 -91.49,-21.04 -125.29,-21.04l-985.98 0z"/>
   <path class="fil0" d="M2853.83 5156.26l1161.95 0c233.99,0 413.78,125.92 539.38,377.76 23.59,75.87 35.38,134.2 35.38,175.01l0 819.58 -1120.83 0c-272.88,0 -466.37,-132.93 -580.5,-398.79 -23.59,-66.94 -35.38,-132.29 -35.38,-196.05l0 -777.51zm175.01 175.01l0 588.15c0,216.14 114.44,358.63 343.33,427.49 47.81,4.46 85.11,6.69 111.89,6.69l931.47 0 0 -623.53c0,-176.61 -100.42,-304.76 -301.24,-384.45 -35.07,-9.56 -67.91,-14.35 -98.51,-14.35l-986.94 0z"/>
   <path class="fil0" d="M5531.54 5156.26l1736.72 0 0 552.77c0,11.47 -170.55,56.1 -511.64,133.88 -12.12,8.93 -362.14,97.56 -1050.06,265.87l0 244.82 1561.7 0 0 175.01 -1736.72 0 0 -560.41 1561.71 -384.45 0 -252.48 -1561.71 0 0 -175.01zm3163.59 2.87l1181.08 0 0 175.01 -1166.74 0c-167.67,0 -295.83,97.86 -384.45,293.6 0,15.3 -2.23,26.78 -6.69,34.43l1544.49 0c8.93,1.27 13.39,6.06 13.39,14.34l0 852.1 -174.06 0 0 -691.43 -1390.52 0 0 691.43 -175.01 0 0 -782.29c0,-246.1 128.15,-430.03 384.45,-551.8 70.77,-23.59 128.79,-35.39 174.06,-35.39z"/>
   <path class="fil1" d="M3394.28 7280.9l73.81 10.04c-8.16,49.54 -28.75,88.18 -62.09,116.23 -33.33,28.05 -74.39,42 -122.88,42 -60.8,0 -109.73,-19.4 -146.64,-58.19 -37.04,-38.78 -55.49,-94.32 -55.49,-166.59 0,-46.89 8.01,-87.77 23.89,-122.93 15.88,-35.02 40.05,-61.39 72.67,-78.83 32.47,-17.59 67.81,-26.38 106.14,-26.38 48.21,0 87.83,11.86 118.45,35.72 30.76,23.86 50.5,57.77 59.08,101.58l-72.95 10.89c-7.02,-29.17 -19.32,-51.07 -37.2,-65.86 -17.74,-14.65 -39.19,-22.05 -64.37,-22.05 -38.05,0 -68.95,13.26 -92.84,39.77 -23.76,26.65 -35.63,68.51 -35.63,125.99 0,58.33 11.45,100.6 34.34,126.98 23.02,26.37 52.93,39.62 89.7,39.62 29.75,0 54.5,-8.79 74.23,-26.51 19.89,-17.58 32.48,-44.79 37.78,-81.48zm109.86 -58.19c0,-80.23 22.89,-139.67 68.81,-178.32 38.2,-32.09 84.97,-48.14 140.05,-48.14 61.08,0 111.15,19.54 150.06,58.61 38.77,38.93 58.23,92.92 58.23,161.71 0,55.81 -8.59,99.63 -25.76,131.58 -17.16,31.95 -42.2,56.79 -75.1,74.51 -32.75,17.72 -68.67,26.51 -107.43,26.51 -62.37,0 -112.73,-19.4 -151.21,-58.32 -38.49,-38.93 -57.65,-95.02 -57.65,-168.14zm77.24 0.14c0,55.53 12.45,97.11 37.34,124.6 25.04,27.63 56.37,41.44 94.28,41.44 37.48,0 68.67,-13.81 93.69,-41.58 24.9,-27.76 37.34,-70.04 37.34,-126.83 0,-53.58 -12.59,-94.18 -37.62,-121.67 -25.03,-27.63 -56.22,-41.44 -93.41,-41.44 -37.91,0 -69.24,13.67 -94.28,41.16 -24.89,27.49 -37.34,68.93 -37.34,124.32zm664.78 217.11l0 -377.57 -142.48 0 0 377.57 -75.54 0 0 -377.57 -66.95 0 0 -56.93 66.95 0 0 -41.99c0,-42.98 9.59,-75.91 28.61,-98.65 18.89,-22.89 48.93,-34.33 90.12,-34.33 27.04,0 52.65,3.07 76.68,9.35l-11.73 62.09c-14.87,-2.37 -28.47,-3.63 -40.77,-3.63 -25.89,0 -43.63,5.03 -53.21,15.07 -9.44,10.05 -14.16,31.4 -14.16,64.05l0 28.04 142.48 0 0 -41.99c0,-42.98 9.44,-75.91 28.46,-98.65 19.03,-22.89 49.07,-34.33 90.13,-34.33 27.04,0 52.64,3.07 76.68,9.35l-11.74 62.09c-14.73,-2.37 -28.32,-3.63 -40.62,-3.63 -26.04,0 -43.78,5.03 -53.22,15.07 -9.59,10.05 -14.3,31.4 -14.3,64.05l0 28.04 86.4 0 0 56.93 -86.4 0 0 377.57 -75.39 0zm526.01 -140.65l78.1 10.05c-12.16,44.23 -34.91,78.69 -68.1,103.11 -33.18,24.42 -75.53,36.7 -127.17,36.7 -64.95,0 -116.45,-19.54 -154.5,-58.6 -38.05,-38.93 -57.07,-93.77 -57.07,-164.23 0,-72.84 19.16,-129.48 57.65,-169.67 38.48,-40.32 88.41,-60.42 149.77,-60.42 59.37,0 107.87,19.68 145.49,59.17 37.62,39.48 56.5,95.02 56.5,166.59 0,4.33 -0.14,10.89 -0.43,19.54l-331.74 0c2.86,47.58 16.6,84.13 41.49,109.39 24.74,25.25 55.79,37.95 92.84,37.95 27.61,0 51.21,-7.11 70.67,-21.35 19.59,-14.23 35.04,-36.97 46.5,-68.23zm-247.2 -118.04l248.05 0c-3.29,-36.56 -12.87,-63.9 -28.46,-82.18 -23.9,-28.33 -55.08,-42.56 -93.28,-42.56 -34.61,0 -63.66,11.3 -87.26,33.91 -23.46,22.6 -36.48,52.88 -39.05,90.83zm724.57 118.04l78.1 10.05c-12.16,44.23 -34.91,78.69 -68.1,103.11 -33.19,24.42 -75.53,36.7 -127.17,36.7 -64.95,0 -116.45,-19.54 -154.5,-58.6 -38.05,-38.93 -57.07,-93.77 -57.07,-164.23 0,-72.84 19.16,-129.48 57.65,-169.67 38.48,-40.32 88.41,-60.42 149.77,-60.42 59.37,0 107.86,19.68 145.49,59.17 37.62,39.48 56.5,95.02 56.5,166.59 0,4.33 -0.14,10.89 -0.43,19.54l-331.74 0c2.86,47.58 16.6,84.13 41.49,109.39 24.74,25.25 55.79,37.95 92.84,37.95 27.61,0 51.21,-7.11 70.67,-21.35 19.59,-14.23 35.04,-36.97 46.5,-68.23zm-247.2 -118.04l248.05 0c-3.29,-36.56 -12.87,-63.9 -28.46,-82.18 -23.9,-28.33 -55.08,-42.56 -93.28,-42.56 -34.61,0 -63.66,11.3 -87.26,33.91 -23.46,22.6 -36.48,52.88 -39.05,90.83zm772.34 187.53c-24.89,26.79 -52.07,46.88 -81.39,60.28 -29.34,13.39 -61.09,20.09 -95.28,20.09 -62.94,0 -112.87,-20.65 -149.78,-61.95 -29.9,-33.77 -44.92,-71.3 -44.92,-112.88 0,-36.98 12.16,-70.33 36.63,-100.05 24.46,-29.85 61.08,-55.95 109.57,-78.55 -27.89,-30.98 -46.49,-56.23 -55.79,-75.63 -9.3,-19.25 -14.01,-37.95 -14.01,-55.95 0,-36 14.44,-67.25 43.48,-93.76 28.9,-26.65 65.38,-39.91 109.44,-39.91 41.91,0 76.38,12.56 103.14,37.68 26.75,25.11 40.05,55.39 40.05,90.55 0,57.07 -38.91,105.9 -116.87,146.23l111.29 136.18c12.74,-24 22.61,-51.77 29.62,-83.44l78.11 16.47c-13.46,52.18 -31.62,94.88 -54.65,128.22 28.18,36.42 60.22,66.98 95.84,91.81l-50.64 58.33c-30.32,-18.84 -61.51,-46.88 -93.84,-83.72zm-154.49 -311.29c32.9,-18.98 54.07,-35.44 63.8,-49.67 9.72,-14.24 14.59,-30 14.59,-47.31 0,-20.51 -6.73,-37.25 -20.04,-50.23 -13.29,-12.97 -30.04,-19.53 -49.92,-19.53 -20.45,0 -37.62,6.42 -51.21,19.26 -13.59,12.83 -20.46,28.6 -20.46,47.3 0,9.2 2.44,19.11 7.44,29.3 4.86,10.32 12.16,21.21 22.03,32.65l33.77 38.23zm106.43 253.8l-137.62 -167.57c-40.92,23.58 -68.53,45.48 -82.69,65.72 -14.3,20.23 -21.46,40.18 -21.46,59.99 0,24.14 9.88,49.26 29.75,75.35 19.75,26.09 47.79,39.07 83.98,39.07 22.6,0 46.07,-6.7 70.1,-20.23 24.18,-13.54 43.48,-30.98 57.94,-52.33zm432.88 62.93l10.29 65.02c-21.17,4.33 -40.2,6.56 -56.78,6.56 -27.33,0 -48.5,-4.19 -63.66,-12.7 -15.02,-8.51 -25.61,-19.53 -31.77,-33.34 -6.15,-13.82 -9.15,-42.84 -9.15,-87.07l0 -250.32 -55.8 0 0 -56.93 55.8 0 0 -107.43 75.53 -44.24 0 151.67 75.54 0 0 56.93 -75.54 0 0 254.5c0,21.07 1.29,34.61 4.01,40.61 2.57,6 6.87,10.74 12.88,14.37 6,3.49 14.59,5.3 25.74,5.3 8.3,0 19.32,-0.98 32.91,-2.93zm378.38 -74.93l78.11 10.05c-12.16,44.23 -34.91,78.69 -68.1,103.11 -33.19,24.42 -75.53,36.7 -127.18,36.7 -64.94,0 -116.44,-19.54 -154.49,-58.6 -38.06,-38.93 -57.08,-93.77 -57.08,-164.23 0,-72.84 19.17,-129.48 57.65,-169.67 38.48,-40.32 88.41,-60.42 149.77,-60.42 59.38,0 107.87,19.68 145.5,59.17 37.61,39.48 56.5,95.02 56.5,166.59 0,4.33 -0.15,10.89 -0.43,19.54l-331.74 0c2.86,47.58 16.59,84.13 41.49,109.39 24.74,25.25 55.78,37.95 92.83,37.95 27.62,0 51.22,-7.11 70.68,-21.35 19.59,-14.23 35.04,-36.97 46.49,-68.23zm-247.2 -118.04l248.05 0c-3.29,-36.56 -12.86,-63.9 -28.46,-82.18 -23.9,-28.33 -55.08,-42.56 -93.28,-42.56 -34.61,0 -63.65,11.3 -87.26,33.91 -23.45,22.6 -36.47,52.88 -39.05,90.83zm711.69 204.27c-28.04,23.3 -55.07,39.63 -80.97,49.26 -25.89,9.62 -53.64,14.37 -83.4,14.37 -48.92,0 -86.55,-11.58 -112.87,-34.88 -26.31,-23.17 -39.48,-52.89 -39.48,-89.02 0,-21.21 5,-40.61 14.88,-58.19 10.01,-17.58 23.02,-31.53 39.05,-42.14 16.17,-10.6 34.19,-18.69 54.36,-24.13 14.87,-3.77 37.34,-7.4 67.23,-11.03 60.95,-6.97 106.01,-15.49 134.76,-25.25 0.29,-10.05 0.43,-16.47 0.43,-19.12 0,-29.86 -7.15,-50.93 -21.45,-63.2 -19.32,-16.61 -48.07,-24.84 -86.13,-24.84 -35.61,0 -61.94,6.14 -78.82,18.28 -17.02,12.14 -29.46,33.62 -37.62,64.6l-73.81 -10.05c6.71,-30.83 17.74,-55.81 33.19,-74.78 15.45,-18.98 37.76,-33.49 66.94,-43.82 29.04,-10.18 62.95,-15.35 101.28,-15.35 38.06,0 69.1,4.33 92.99,13.12 23.75,8.79 41.34,19.67 52.5,32.93 11.16,13.25 19.02,30 23.6,50.23 2.43,12.56 3.73,35.16 3.73,67.67l0 97.67c0,68.23 1.57,111.35 4.71,129.63 3.01,18.28 9.3,35.72 18.46,52.46l-78.97 0c-7.58,-15.49 -12.44,-33.63 -14.59,-54.42zm-6.01 -163.25c-27.46,10.89 -68.67,20.1 -123.6,27.63 -31.18,4.33 -53.21,9.21 -66.09,14.65 -12.88,5.44 -22.74,13.4 -29.75,23.72 -7.01,10.47 -10.59,22.05 -10.59,34.88 0,19.4 7.59,35.72 22.89,48.7 15.31,12.98 37.62,19.53 66.95,19.53 29.04,0 54.93,-6.14 77.67,-18.55 22.61,-12.28 39.34,-29.17 49.93,-50.51 8.16,-16.61 12.16,-41.03 12.16,-73.26l0.43 -26.79z"/>
  </g>
 </g>
</svg>
